<svg id="Layer_1" data-name="Layer 1" xmlns="http://www.w3.org/2000/svg" viewBox="0 0 500 500"><defs><style>.cls-1{fill:#29a6dd;}.cls-2{opacity:0.42;}.cls-3{fill:#6ff;}.cls-4{fill:#0f263d;}.cls-5{fill:#155671;}.cls-6{fill:#338080;}</style></defs><title>Artboard 1</title><circle class="cls-1" cx="250" cy="250.25" r="209.85"/><g class="cls-2"><path class="cls-3" d="M346.7,205.33a95.43,95.43,0,0,0-.49-13c-.37-3.8-.34-7.61-2.43-10.78a22.42,22.42,0,0,0-7.81-7.28l-5.64-3.08c-8.87-4.84-20-4.11-29.93-4.06l-66.59.29c-5.2,0-10.46.05-15.52,1.27-18.84,4.52-30.09,23.95-35.47,42.56-7.74,26.79-7.89,55.17-6.23,83,.39,6.61.89,13.26,2.51,19.68,5.77,23,24.77,39.93,43.64,54.21l2.49,1.87c16.5,12.29,34.57,23.89,55,28.19a75,75,0,0,0,15.36,1.68c4.42,0,7.55-1.41,11.68-2.54,10.09-2.77,11.22-10.18,16-18.37,1.39-2.38,3.15-4.54,4.46-7a43.81,43.81,0,0,0,2.15-4.89L336,351.49c1.38-3.51,2.76-7,3.84-10.64a68.83,68.83,0,0,0,.44-37.79,68.5,68.5,0,0,1-2.12-8.4,45.06,45.06,0,0,1-.19-8c.37-10.2,0-20.43.75-30.61.63-8.07.91-16.47,2.35-24.42.52-2.86,1.23-5.68,1.94-8.5C344.56,217.09,346.45,211.7,346.7,205.33Z"/></g><path class="cls-4" d="M341.5,245.91a7.6,7.6,0,0,1,1.7,1.06q1.19.7,2.4,1.36c1.61.89,3.23,1.74,4.87,2.56,3.28,1.65,6.61,3.21,9.92,4.79a13,13,0,0,1,4.88,3.35c1.23,1.57,1.63,4,.36,5.52a6.2,6.2,0,0,1-3.88,1.77,19,19,0,0,1-10.17-.93c-3.6-1.32-7.17-2.58-10.84-3.81-2.58-.87-1.46-4.67-1.3-6.79.19-2.49.56-5,.87-7.43.09-.68.13-1.62,1.07-1.48Z"/><g class="cls-2"><path class="cls-3" d="M160.32,254.12c-2.49-3.21-5.05-6.48-8.48-8.66s-8-3.08-11.58-1.24c-3.42,1.73-5.37,5.56-5.85,9.35s.28,7.63,1,11.39l8,39.89c1.19,5.93,2.42,11.95,5.23,17.3s7.49,10,13.37,11.43c2.45.58,5.27.47,7.15-1.19,2.21-2,2.38-5.27,2.39-8.22l.09-20.82c.08-17.18-.55-36.24-12.45-48.64"/></g><path class="cls-5" d="M152.91,278.72c-.36,2.87-4.33,4.61-5.6,7.19a8.55,8.55,0,0,0-.56,6c1.31,5.39,8.54,10.37,6.95,16.19-.76,2.8,3.58,4,4.34,1.2,1.5-5.5-1.81-9.56-4.59-14S150.33,289,154,285c1.95-2.16,3.06-3.34,3.43-6.29s-4.15-2.84-4.5,0Z"/><path class="cls-3" d="M260.51,325.41c-4.52,4.07-10.09,10.83-5.8,17,3.57,5.13,11,4.27,16.28,3.13,2.48-.53,1.43-4.34-1-3.81-3.4.73-8.73,1.77-11.52-1-4.09-4.08,1.95-9.89,4.87-12.52,1.89-1.7-.91-4.49-2.79-2.79Z"/><path class="cls-3" d="M306.16,371.24c-3.51,4.67-7.36,9.58-13.21,11.78a29.09,29.09,0,0,1-10.58,1.43c-8-.12-16.43-1.85-22.24-6.72l-8.2-7.45s17.88,6.43,32.52,2.86,25.2-7.15,26.83-8.58S306.16,371.24,306.16,371.24Z"/><path class="cls-3" d="M305,370.58c-5.27,6.91-10.8,12-20,12.53a41.05,41.05,0,0,1-17.82-2.8c-5.73-2.39-9.87-6.84-14.4-11l-1.28,2.2c19.16,6.7,43,4.25,60.61-6l-1.8-1.8a52.61,52.61,0,0,1-5.15,6.56c-1.07,1.3.78,3.17,1.86,1.86a56.15,56.15,0,0,0,5.56-7.1,1.33,1.33,0,0,0-1.8-1.8c-17,9.89-40.14,12.18-58.58,5.73a1.33,1.33,0,0,0-1.28,2.2c7.53,6.84,13.74,12.43,24.32,14,14.31,2.11,23.36-2,32-13.28C308.32,370.56,306,369.25,305,370.58Z"/><path class="cls-6" d="M266,405.29a28.24,28.24,0,0,1,29.7-5.57c1.58.61,2.27-1.94.7-2.54a30.88,30.88,0,0,0-32.26,6.25c-1.25,1.15.62,3,1.86,1.86Z"/><path class="cls-4" d="M329.83,244.09a9.74,9.74,0,0,0-4.68-2.25c-5.59-1-11,1.91-16,4.69-4.23,2.38-8.48,5.35-12.95,7.25-2.12.9-6.71,1.81-5.43,5.21,0,0,0,.08.06.13a2.47,2.47,0,0,0,1.15,1.44c2.93,1.76,8-1,10.91-2,4.34-1.39,8.7-2.74,13.12-3.87,3.78-1,7.08-3.72,11.12-3.6,2.5.08,4.5,1.28,6.85,1.57a1.32,1.32,0,0,0,.88-.12,1.19,1.19,0,0,0,.45-.75c.45-1.92-1.11-3.66-2.55-5C331.7,245.83,330.8,244.89,329.83,244.09Z"/><path class="cls-4" d="M267.31,254.49c-6.13-1.09-11.83-3.26-17.7-5.34-14.75-5.22-30.29-3-44.84,1.91a6.4,6.4,0,0,0-3.11,1.79c-1.46,1.84-1.24,7.44,2.15,7.13,10.71-1,20.76-4.27,31.6-3.38,6.21.51,12.33,1.74,18.5,2.6,2.8.39,16.16,3.29,15.19-1.73A2.22,2.22,0,0,0,267.31,254.49Z"/><circle class="cls-3" cx="237.72" cy="279.19" r="10.53"/><circle class="cls-5" cx="241.67" cy="281.39" r="5.36"/><circle class="cls-3" cx="316.23" cy="275.25" r="9.21"/><path class="cls-6" d="M203,279.44a3.5,3.5,0,0,1-1.8-.33.65.65,0,0,1-.16-1c.5-.71,2.69-1.3,4.41-1.58a16.7,16.7,0,0,1,3.19-.26c.78,0,1.68.13,1.79.76h0a.67.67,0,0,1-.13.51c-.5.71-2.69,1.3-4.41,1.58A18.33,18.33,0,0,1,203,279.44Zm-1-.95a12,12,0,0,0,3.75-.19,12.31,12.31,0,0,0,3.61-1,12.1,12.1,0,0,0-3.75.19A12.3,12.3,0,0,0,202,278.49Z"/><path class="cls-6" d="M358.33,269.8c-1.07,0-2-.17-2.13-.77-.2-1.21,3.43-1.91,4.54-2.1,1.72-.29,4-.45,4.68.06a.67.67,0,0,1,.29.44c.2,1.21-3.43,1.91-4.54,2.09A18.6,18.6,0,0,1,358.33,269.8Zm-1-1a12.17,12.17,0,0,0,3.75-.18,12.31,12.31,0,0,0,3.6-1,16.07,16.07,0,0,0-7.35,1.23Z"/><path class="cls-4" d="M169.72,117.48a3.94,3.94,0,0,0,1,.11c4.24,0,9.56-6.21,12.15-8.5,9.15-8.05,21.39-12,33.63-12a57.56,57.56,0,0,1,11.29,1.12c4.61.92,9.23,2.38,13.88,2.38a20,20,0,0,0,2.62-.17c5.44-.72,17.67-3,20.12-7.46,3.61-6.48,1.81-16.13-2.42-21.82a22.45,22.45,0,0,0-17.8-8.73,20.7,20.7,0,0,0-5.87.84,24.48,24.48,0,0,1-4.63,1.23c-.25,0-.5,0-.75,0-2.6,0-5.09-1.17-7.54-2.13a43.9,43.9,0,0,0-15.81-3,37.19,37.19,0,0,0-11.81,1.87c-8.92,3-16.64,9.88-19.79,18.74a9.26,9.26,0,0,1-1.44,3,9.65,9.65,0,0,1-2.25,1.7c-7.45,4.75-11,14.35-9.56,22.91C165.15,110.5,166.47,116.67,169.72,117.48Z"/><path class="cls-4" d="M350.66,184a45,45,0,0,0-34.81-48.42c-3-.69-6.25-1.13-8.71-3s-3.83-5.2-5.33-8.1c-6.77-13.07-21.48-21.22-36.08-21.22a36.85,36.85,0,0,0-11.83,1.91c-3.09,1-6.12,2.49-9.38,2.61h-.45c-3,0-5.88-1.07-8.78-1.84a48.61,48.61,0,0,0-12.53-1.6,64.58,64.58,0,0,0-27.17,6.44c-12.31,5.79-22.94,14.63-32.78,24-4.6,4.4-9.15,9.05-11.91,14.79-3.18,6.61-3.73,14.14-4.14,21.46-.26,4.63-.49,9.32-1.83,13.76-1.86,6.14-5.75,11.49-7.86,17.55-2.8,8.05-2.22,16.69-.26,24.86,1.84,7.71,3.71,14,11.54,17.24,3.23,1.33,6.72,2.37,9.27,4.75,1.66,1.54,2.85,3.59,4.7,4.9a13.89,13.89,0,0,0,6.88,2c10.38.94,3.95-11.61,3.78-17.15-.12-4.17,1.9-9.54,3.28-13.49,3.43-9.85,9.38-18.58,15.6-26.86,5.13-6.83,10.78-13.86,18.75-16.94a27.25,27.25,0,0,1,9.94-1.76c13,0,26.69,7.57,40.28,7.57h.71c10.87-.22,20.38-5.61,30.28-9.32a29.84,29.84,0,0,1,10.54-2c6.25,0,12.14,2.21,18.3,6.1,7,4.41,13.5,10,17.82,17.12,2.71,4.48,2.53,10.26,1.89,15.27-.3,2.36-4.19,13.24-2.35,14.76a1.57,1.57,0,0,0,1,.32l.34,0c1.62-.23,2.71-1.72,3.57-3.11,2.9-4.73,5.21-9.21,4.89-14.87-.27-4.8-.87-10.33-.12-15.09C348.39,192.38,350.24,188.43,350.66,184Z"/><path class="cls-5" d="M162.9,267.12c-2.74-2.4-4.85-5.22-5.24-8.5-.95-8.15,11.16-.73,13.83.83,8.52,5,13.73,8.72,22.16,10.55,1.85.4,4,.71,5,2.32.76,1.25.5,2.85.22,4.28-.39,2-1.1,4.42-3.09,5a5.48,5.48,0,0,1-2.76-.15,77.13,77.13,0,0,1-18.73-7.11C171,272.57,166.42,270.19,162.9,267.12Z"/><path class="cls-4" d="M274.82,344.69c-2.4.52-4.31,2.22-6.56,2.85s-5.51-.1-7.76-.71-4.26-1.5-6.5-1.68c-8.69-.68-12.13,8.79-14.36,15.61a42,42,0,0,0-2.31,9.53,6.42,6.42,0,0,0,.53,3.65c2.42,4.38,5.92-1.5,7.51-3.28a47.88,47.88,0,0,1,9.48-8.46c5.2-3.37,11.62-5.27,17.67-3.92,3.06.68,6.11,2.17,9.19,1.57,2.13-.41,3.93-1.77,5.84-2.79a20,20,0,0,1,14.15-1.73c3.82,1,7.27,3,11,4.3,2.57.86,5.51,1.29,7.9,0,4.18-2.19,2-5.55,1.24-8.74-1.16-4.69-4.22-9.56-9-10.24-6.21-.88-11.07,5.56-17.22,6.75C288.68,348.79,281.74,343.21,274.82,344.69Z"/><path class="cls-3" d="M260.61,311.73A46.09,46.09,0,0,0,268,301c3-6.41,5.11-17.69,14.66-15.69,10.15,2.13,13.9,22.47,20.92,29.73,3.71,3.84,10.5,7.05,2.62,14.88.66-.65-4.79,2.26-4.44,2-2.59,1.77-4.3,4.47-6.16,6.93A19.74,19.74,0,0,1,291,344l-9.95-2.65c-1.54-.81-2.83-2.67-4.32-3.64-3.63-2.36-6.6-3.22-10.78-2-2.43.71-1.4,4.52,1,3.81,3.45-1,9.67,3.38,12.26,5.44a19.14,19.14,0,0,0,3.52,2.51,11.44,11.44,0,0,0,5.94,1.36c4.85-.42,7.65-4.4,10.34-8,3.47-4.62,6.29-5.08,11-8.08,1.86-1.19,3.26-2,4.19-4.09,2.23-5.12-1.3-10.11-4.71-13.56-7.21-7.29-10.71-15.57-15.49-24.5-2.65-4.94-5.7-8.79-11.57-9.73-5-.81-8.52,1-11.51,4.84-5.59,7.18-7,16.19-13.13,23.24-1.67,1.9,1.11,4.71,2.79,2.79Z"/><path class="cls-5" d="M220.7,284.27c9,8.9,21.68,7.44,32,1.63a1.32,1.32,0,0,0-1.33-2.27c-9.27,5.22-20.6,6.88-28.81-1.22-1.21-1.19-3.07.67-1.86,1.86Z"/><path class="cls-5" d="M302.8,283.49a29.86,29.86,0,0,0,23,.9c1.58-.58.89-3.12-.7-2.54a27.22,27.22,0,0,1-20.95-.63c-1.53-.69-2.87,1.58-1.33,2.27Z"/><circle class="cls-5" cx="319.73" cy="277" r="5.02"/><path class="cls-5" d="M251.67,371c19.85,3.74,42.56,5,60.29-6.34,2.13-1.36.16-4.78-2-3.41-16.79,10.73-38.46,9.48-57.25,5.94-2.48-.47-3.55,3.34-1,3.81Z"/><path class="cls-5" d="M162.8,258.51c-3-8.54-8.45-21.21-20-19-9.34,1.82-10.51,12.69-10.45,20.49s1.94,15.12,3.5,22.58c2.18,10.43,1.64,21.31,3.93,31.62,2.54,11.43,9.11,20,21.36,20.12,2.9,0,2.9-4.47,0-4.5-20.62-.19-17.16-28.6-19.81-42.92-1.17-6.35-2.84-12.55-3.67-19-.78-6-1.6-10.91,1.19-16.55,1.45-2.92,3.86-5.79,7.11-6.1a8,8,0,0,1,5.14,1.52c5.07,3.45,5.53,7.58,7.37,12.85C159.4,262.43,163.75,261.26,162.8,258.51Z"/><circle class="cls-3" cx="157.09" cy="321.26" r="8.5"/><path class="cls-3" d="M285.3,186.07c18.09-4.17,36.14-3.86,46.16,14.24,8.84,16,5.63,34.67,3.61,51.85-1.72,14.64-2.47,31.14.34,45.69,1.57,8.15,3.79,15.76,3.7,24.19-.09,8.95-2.79,17.07-5.33,25.53-.73,2.44,3.08,3.48,3.81,1,2.5-8.33,5.16-16.33,5.43-25.09s-1.78-16.71-3.51-25.32c-4.35-21.6.37-43.34,1.62-64.9.92-15.87-1.62-33.27-13.69-44.73s-28.16-9.78-43.17-6.31c-2.47.57-1.43,4.38,1,3.81Z"/><path class="cls-4" d="M165.07,336.73c-.1,1.05-.2,2.1-.26,3.15-.56,8.53,2.76,15,7,22.42,4.51,7.9,9.09,15.91,15.51,22.35,9.44,9.47,22.64,13.27,30.92,23.42a72.79,72.79,0,0,0,57.2,27.09c11.57,0,18.17-1.89,27.16-8.92,5.26-4.12,10.57-8.27,14.88-13.38,9.29-11,13.11-22.37,16.57-36.1,2.53-10,7.46-17.21,7.23-28-.13-6.33,2.35-12.51,1.86-19-.05-.71-.38-1.64-1.09-1.57a1.3,1.3,0,0,0-.87.75,17.75,17.75,0,0,0-1.1,2.4l-1.55,3.87c-1.84,4.6-2,8.45-6.12,11.62-2.38,1.82-5.22,3-7.52,4.92-5.59,4.66-6.9,12.53-9.4,19.37a50,50,0,0,1-6.78,12.58c-3.3,4.45-7.58,8.49-12.92,10-6,1.67-12.44-.08-18.63.7-3,.38-5.94,1.35-9,1.18-9.26-.51-14.43-10.76-22.22-15.78-5.71-3.68-12.87-4.5-18.69-8-3.69-2.22-6.68-5.41-9.74-8.43-4.25-4.19-8.82-8.05-13.26-12-4.16-3.71-9.23-6.49-12.58-11.06-2.51-3.43-3.81-7.57-5.61-11.42-2.08-4.44-4.86-8.53-6.82-13a39.16,39.16,0,0,1-3.21-15.1c-.06-4.85.93-8.91-1.14-13.55a22.39,22.39,0,0,0-5.33-7.05c-.77-.72-4.93-6.13-5.25-2.54-.52,5.78-1.55,12-.55,17.74,1.07,6.14,3.26,12,3.41,18.31C167.36,321.22,165.83,329.1,165.07,336.73Z"/><path class="cls-3" d="M216.94,183.27c-34,6.65-46.34,42.49-42.39,73.43.21,1.66,2.85,1.68,2.63,0-3.81-29.8,7.47-64.44,40.46-70.89,1.66-.32,1-2.86-.7-2.54Z"/><path class="cls-3" d="M299.13,264.92a127.43,127.43,0,0,1,30.7-7.63c1.66-.2,1.68-2.83,0-2.63a130.06,130.06,0,0,0-31.4,7.72c-1.57.6-.89,3.15.7,2.54Z"/><path class="cls-3" d="M250.47,260.34c-12.13-.38-27-3.24-37.33,4.79-1.33,1,.54,2.89,1.86,1.86,9.31-7.26,24.47-4.36,35.47-4,1.69.05,1.69-2.58,0-2.63Z"/><path class="cls-5" d="M366.35,259.91c-21.24-6.19-47.6-.88-65.19,6.15a47.51,47.51,0,0,1-15.21,3.55c-5.52.27-10.45-1.57-15.71-2.76a136.27,136.27,0,0,0-16.79-2.65,133.09,133.09,0,0,0-28.27.24,108.64,108.64,0,0,0-18.34,3.67c-2.94.87-8.09,1.52-9.1,4.9-.39,1.29-.79,2.56-1.22,3.84-1.85,5.56,3.67,8.4,3.79,8.45,3,1,3.53,3.49,4.67,8.49A95.9,95.9,0,0,0,208.8,307c4.28,11.41,16.25,13.76,28.94,13.76,3.06,0,6.17-.14,9.21-.32,14.91-.88,21.14-11.91,25.81-22.19,2.19-4.82,5.76-12,10.69-14.65C291,279.53,295.65,291,298,296.06c8.66,18.26,22.69,19.08,41.09,14.7,17-4.05,19.29-18.25,20.25-24.31.09-.58.17-1.08.25-1.47,1-4.79,2.83-8.87,5.14-11.18.43-.43.79-.76,1.09-1,1.66-1.55,1.8-1.77,2.54-6.21C369.34,261,366.48,260,366.35,259.91Zm-37.81,3.49q3.84-.25,7.16-.25c9.1,0,15.2,1.4,18.16,4.18a7.7,7.7,0,0,1,2.28,6.15c0,16.77-5.5,27.83-15.49,31.16s-28.13,7.3-35.45-4.21c-4.68-7.35-6.95-14.16-6.95-20.82C298.24,279.49,300,265.24,328.53,263.4ZM218.24,311.73c-9.34-6.79-7.73-26.6-7.71-26.84,0-.82.87-5,4.87-8.86,3.54-3.43,10.42-7.4,23.27-7.4q1,0,2.1,0c22,.71,29.49,4.31,31.87,7.21,3,3.61-.17,9.35-2,12.74L262.94,303a29.83,29.83,0,0,1-2.74,4.45c-4.63,5.86-13.44,7-20.47,7.84S224.24,316.1,218.24,311.73Z"/><path class="cls-5" d="M237.74,321.61c-11.36,0-25-1.63-29.76-14.33A96.63,96.63,0,0,1,204.12,294c-1.19-5.22-1.73-7.06-4.09-7.85-.16-.07-6.45-3.25-4.34-9.56.42-1.27.82-2.53,1.21-3.82,1-3.27,5.06-4.3,8-5,.59-.15,1.15-.29,1.65-.44a110.23,110.23,0,0,1,18.49-3.7,133.85,133.85,0,0,1,28.46-.24A137.57,137.57,0,0,1,270.43,266c1.32.3,2.61.63,3.9,1,3.89,1,7.55,2,11.58,1.77a46.66,46.66,0,0,0,14.92-3.49c17.73-7.09,44.31-12.44,65.77-6.18h0c.38.13,3.67,1.44,2.64,7.61-.75,4.52-.94,5-2.81,6.7-.3.28-.65.61-1.07,1-2.19,2.19-4,6.1-4.9,10.73-.07.34-.13.76-.21,1.25l0,.19c-1,6.23-3.32,20.83-20.92,25-18.82,4.48-33.17,3.61-42.08-15.18l-.54-1.16c-1.75-3.78-4.68-10.1-8.62-11.42a5.12,5.12,0,0,0-4.22.5c-4.49,2.4-7.87,8.87-10.3,14.24-4.78,10.51-11.16,21.79-26.56,22.7C243.33,321.51,240.39,321.61,237.74,321.61Zm2.58-57.16a129.05,129.05,0,0,0-15.05.87A108.33,108.33,0,0,0,207.08,269c-.52.15-1.1.3-1.72.46-2.71.68-6.09,1.53-6.79,3.85-.39,1.3-.8,2.58-1.22,3.86-1.61,4.84,3.14,7.28,3.34,7.38,3.32,1.1,4,3.93,5.14,9.08a95.14,95.14,0,0,0,3.79,13.07c3.42,9.12,12.09,13.19,28.12,13.19,2.61,0,5.52-.1,9.16-.31,14.42-.85,20.5-11.63,25.06-21.67,2.55-5.62,6.12-12.4,11.07-15.06a6.87,6.87,0,0,1,5.6-.62c4.66,1.56,7.67,8,9.66,12.34l.53,1.14c8.41,17.73,22.11,18.5,40.1,14.22,16.46-3.92,18.65-17.71,19.59-23.59l0-.19c.08-.51.15-1,.23-1.32,1-5,3-9.2,5.38-11.63.44-.44.8-.78,1.11-1.07,1.51-1.41,1.57-1.46,2.27-5.71.78-4.66-1.27-5.58-1.47-5.66-21-6.12-47.15-.84-64.6,6.14A48.44,48.44,0,0,1,286,270.5c-4.29.2-8.26-.82-12.11-1.83-1.27-.33-2.54-.66-3.84-1a135.84,135.84,0,0,0-16.68-2.64C249,264.66,244.65,264.45,240.33,264.45Zm-7.26,52.13c-6.48,0-11.53-1.37-15.34-4.14h0c-9.57-7-8.14-26.77-8.07-27.61s.87-5.3,5.14-9.43c3.79-3.67,11.42-8.09,26-7.61,18,.58,28.9,3.11,32.52,7.52,3.31,4,.09,10-1.84,13.62l-7.77,14.47a30.61,30.61,0,0,1-2.82,4.58c-4.93,6.24-14.25,7.35-21.06,8.17A57.28,57.28,0,0,1,233.07,316.58ZM218.76,311c4.67,3.39,11.49,4.5,20.86,3.38,6.5-.77,15.41-1.84,19.89-7.51a29.25,29.25,0,0,0,2.65-4.32l7.73-14.38c1.77-3.29,4.64-8.64,2.08-11.76-1.85-2.26-8.36-6.15-31.22-6.88-14-.49-21.19,3.68-24.74,7.12-3.8,3.68-4.61,7.61-4.61,8.23-.06.88-1.43,19.74,7.35,26.13Zm103.31-2c-7,0-13.72-2-17.61-8.08-4.77-7.49-7.09-14.45-7.09-21.29,0-.15,1.83-15.22,31.11-17.1,13.21-.86,22.1.53,26,4.17a8.6,8.6,0,0,1,2.56,6.79c0,17.17-5.71,28.54-16.09,32C335.85,307.18,328.81,309,322.06,309Zm13.63-45c-2.2,0-4.59.08-7.1.25h0c-27.63,1.78-29.46,15.29-29.47,15.43,0,6.41,2.23,13.07,6.82,20.27,7,11,24.58,7.13,34.44,3.84,9.6-3.2,14.89-14,14.89-30.33,0-2.18-.34-4-2-5.51C350.46,265.36,344.56,264,335.69,264Z"/><path class="cls-3" d="M250,490.49C117.53,490.49,9.75,382.72,9.75,250.25S117.53,10,250,10,490.25,117.77,490.25,250.25,382.47,490.49,250,490.49ZM250,15C120.3,15,14.78,120.54,14.78,250.25S120.3,485.47,250,485.47,485.22,380,485.22,250.25,379.7,15,250,15Z"/></svg>